<?xml version="1.0" encoding="UTF-8"?>
<svg id="Layer_1" data-name="Layer 1" xmlns="http://www.w3.org/2000/svg" viewBox="0 0 168.94 160.67">
  <defs>
    <style>
      .cls-1 {
        fill: #fff;
      }
    </style>
  </defs>
  <path class="cls-1" d="M95.55,160.67v-2.64c4.36-.23,7.92-.84,10.68-1.84s5.17-2.6,7.24-4.82c2.53-2.6,4.19-5.82,5-9.65,.8-3.83,1.21-10.41,1.21-19.75V56.96c0-10.57-.4-18.2-1.21-22.91-.8-4.71-2.43-9.05-4.88-13.03-3.68-6.05-8.21-10.43-13.61-13.15-5.4-2.72-12.19-4.08-20.38-4.08s-15.56,1.21-22.8,3.62c-7.24,2.41-13.26,5.76-18.09,10.05-2.99,2.68-5.19,5.59-6.6,8.73-1.42,3.14-2.35,7.12-2.81,11.94-.3,3.14-.46,10.57-.46,22.28V124.61c0,7.89,.44,13.7,1.32,17.46,.88,3.75,2.51,6.85,4.88,9.3,2.14,2.22,4.58,3.83,7.29,4.82,2.72,1,6.26,1.61,10.62,1.84v2.64H0v-2.64c4.36-.23,7.91-.84,10.62-1.84,2.72-1,5.15-2.6,7.29-4.82,2.37-2.45,4-5.57,4.88-9.36,.88-3.79,1.32-9.59,1.32-17.4V52.14c0-10.72,.82-18.62,2.47-23.72,1.65-5.09,4.92-9.74,9.82-13.95C47.59,4.82,63.55,0,84.3,0s37.63,4.55,47.89,13.67c6.66,5.82,10.64,13.48,11.94,22.97,.46,3.37,.69,9.46,.69,18.26V124.61c0,7.89,.42,13.7,1.26,17.46,.85,3.75,2.49,6.85,4.94,9.3,2.07,2.22,4.46,3.83,7.18,4.82,2.72,1,6.3,1.61,10.74,1.84v2.64H95.55Zm0,0H52.94v-2.66h42.61v2.66Z"/>
</svg>